<svg id="history_black_24dp" xmlns="http://www.w3.org/2000/svg" xmlns:xlink="http://www.w3.org/1999/xlink" width="33" height="33" viewBox="0 0 33 33">
  <defs>
    <linearGradient id="linear-gradient" x1="0.5" x2="0.5" y2="1" gradientUnits="objectBoundingBox">
      <stop offset="0" stop-color="#00aeef"/>
      <stop offset="1" stop-color="#34c7ff"/>
    </linearGradient>
  </defs>
  <path id="Caminho_330" data-name="Caminho 330" d="M0,0H33V33H0Z" fill="none"/>
  <path id="Caminho_331" data-name="Caminho 331" d="M18.143,3C11.043,3,5.286,9.045,5.286,16.5H1l5.557,5.835.1.21L12.429,16.5H8.143a10.252,10.252,0,0,1,10-10.5,10.252,10.252,0,0,1,10,10.5,10.252,10.252,0,0,1-10,10.5,9.691,9.691,0,0,1-7.057-3.09L9.057,26.04A12.5,12.5,0,0,0,18.143,30C25.243,30,31,23.955,31,16.5S25.243,3,18.143,3Zm-1.429,7.5V18l6.114,3.81,1.029-1.815-5-3.12V10.5Z" transform="translate(0)" fill="url(#linear-gradient)"/>
</svg>
