<svg xmlns="http://www.w3.org/2000/svg" xmlns:xlink="http://www.w3.org/1999/xlink" width="38" height="36" viewBox="0 0 38 36">
  <defs>
    <filter id="Caminho_315" x="6.8" y="6.8" width="24.4" height="24.4" filterUnits="userSpaceOnUse">
      <feOffset dy="3" input="SourceAlpha"/>
      <feGaussianBlur stdDeviation="3" result="blur"/>
      <feFlood flood-opacity="0.161"/>
      <feComposite operator="in" in2="blur"/>
      <feComposite in="SourceGraphic"/>
    </filter>
    <filter id="Caminho_314" x="0" y="0" width="38" height="36" filterUnits="userSpaceOnUse">
      <feOffset dy="3" input="SourceAlpha"/>
      <feGaussianBlur stdDeviation="3" result="blur-2"/>
      <feFlood flood-opacity="0.161"/>
      <feComposite operator="in" in2="blur-2"/>
      <feComposite in="SourceGraphic"/>
    </filter>
  </defs>
  <g id="local_see_black_24dp" transform="translate(7 4)">
    <path id="Caminho_313" data-name="Caminho 313" d="M0,0H24V24H0Z" fill="none"/>
    <g transform="matrix(1, 0, 0, 1, -7, -4)" filter="url(#Caminho_315)">
      <path id="Caminho_315-2" data-name="Caminho 315" d="M3.2,0A3.2,3.2,0,1,1,0,3.2,3.2,3.2,0,0,1,3.2,0Z" transform="translate(15.8 12.8)" fill="#fff"/>
    </g>
    <g transform="matrix(1, 0, 0, 1, -7, -4)" filter="url(#Caminho_314)">
      <path id="Caminho_314-2" data-name="Caminho 314" d="M9,2,7.17,4H4A2.006,2.006,0,0,0,2,6V18a2.006,2.006,0,0,0,2,2H20a2.006,2.006,0,0,0,2-2V6a2.006,2.006,0,0,0-2-2H16.83L15,2Zm3,15a5,5,0,1,1,5-5A5,5,0,0,1,12,17Z" transform="translate(7 4)" fill="#fff"/>
    </g>
  </g>
</svg>
