<svg id="triangle" xmlns="http://www.w3.org/2000/svg" xmlns:xlink="http://www.w3.org/1999/xlink" width="37.88" height="35.986" viewBox="0 0 37.88 35.986">
  <defs>
    <clipPath id="clip-path">
      <path id="mask" d="M1.186-31.794,16.827-51.57A2.685,2.685,0,0,1,20.63-52a2.722,2.722,0,0,1,.423.427L36.694-31.794a5.513,5.513,0,0,1,1.186,3.419v6.29a5.443,5.443,0,0,1-5.411,5.473H5.411A5.443,5.443,0,0,1,0-22.084v-6.29A5.513,5.513,0,0,1,1.186-31.794Z" transform="translate(0 52.597)" fill="#23206d" clip-rule="evenodd"/>
    </clipPath>
  </defs>
  <path id="triangle-2" data-name="triangle" d="M1.186-31.794,16.827-51.57A2.685,2.685,0,0,1,20.63-52a2.722,2.722,0,0,1,.423.427L36.694-31.794a5.513,5.513,0,0,1,1.186,3.419v6.29a5.443,5.443,0,0,1-5.411,5.473H5.411A5.443,5.443,0,0,1,0-22.084v-6.29A5.513,5.513,0,0,1,1.186-31.794Z" transform="translate(0 52.597)" fill="#3acce1" fill-rule="evenodd"/>
  <path id="triangle-3" data-name="triangle" d="M1.186-31.794,16.827-51.57A2.685,2.685,0,0,1,20.63-52a2.722,2.722,0,0,1,.423.427L36.694-31.794a5.513,5.513,0,0,1,1.186,3.419v6.29a5.443,5.443,0,0,1-5.411,5.473H5.411A5.443,5.443,0,0,1,0-22.084v-6.29A5.513,5.513,0,0,1,1.186-31.794Z" transform="translate(0 52.597)" fill="#028dc1" fill-rule="evenodd" opacity="0.236"/>
  <g id="Mask-2" data-name="Mask" clip-path="url(#clip-path)">
    <path id="triangle-4" data-name="triangle" d="M1.186-31.794,16.827-51.57A2.685,2.685,0,0,1,20.63-52a2.722,2.722,0,0,1,.423.427L36.694-31.794a5.513,5.513,0,0,1,1.186,3.419v6.29a5.443,5.443,0,0,1-5.411,5.473H5.411A5.443,5.443,0,0,1,0-22.084v-6.29A5.513,5.513,0,0,1,1.186-31.794Z" transform="translate(0 43.544)" fill="#34c7ff" fill-rule="evenodd"/>
  </g>
</svg>
