<?xml version="1.0" encoding="utf-8"?>
<!-- Generator: Adobe Illustrator 22.0.0, SVG Export Plug-In . SVG Version: 6.00 Build 0)  -->
<svg version="1.1" id="Layer_1" xmlns="http://www.w3.org/2000/svg" xmlns:xlink="http://www.w3.org/1999/xlink" x="0px" y="0px"
	 viewBox="0 0 24 24" style="enable-background:new 0 0 24 24;" xml:space="preserve">
<style type="text/css">
	.st0{fill:none;}
	.st1{fill:#00AEEF;}
</style>
<g>
	<rect class="st0" width="24" height="24"/>
</g>
<g>
	<g>
		<path class="st1" d="M9,4v1.4C8.2,5.1,7.3,4.9,6.4,4.9c-1.8,0-3.6,0.7-4.9,2.1l3.3,3.3h1.1v1.1c0.9,0.9,2,1.3,3.1,1.4V15H6v3
			c0,1.1,0.9,2,2,2h10c1.7,0,3-1.3,3-3V4H9z M7.9,10.4V8.3H5.6l-1-1C5.1,7,5.8,6.9,6.4,6.9c1.3,0,2.6,0.5,3.5,1.5l1.4,1.4l-0.2,0.2
			c-0.5,0.5-1.2,0.8-1.9,0.8C8.8,10.8,8.3,10.6,7.9,10.4z M19,17c0,0.5-0.5,1-1,1s-1-0.5-1-1v-2h-6v-2.6c0.6-0.2,1.1-0.6,1.6-1
			l0.2-0.2l2.8,2.8H17v-1.4l-6-6V6h8V17z"/>
	</g>
</g>
</svg>
