<svg xmlns="http://www.w3.org/2000/svg" width="35.039" height="22.282" viewBox="0 0 35.039 22.282">
  <g id="Grupo_142" data-name="Grupo 142" transform="translate(-1023.23 -496.617)">
    <path id="Caminho_250" data-name="Caminho 250" d="M1041.87,499.539l-3.04,2.88a6.341,6.341,0,0,0-1.72-1.16,6.79,6.79,0,0,0-6.181.4,7.181,7.181,0,0,0-2.52,2.58,7.063,7.063,0,0,0,0,7.041,7.014,7.014,0,0,0,2.52,2.56,6.643,6.643,0,0,0,3.46.94,6.767,6.767,0,0,0,3.521-.88,5.636,5.636,0,0,0,2-1.96,4.947,4.947,0,0,0,.8-1.96h-6.32v-3.84h10.521a7.706,7.706,0,0,1,.16,1.88,11.567,11.567,0,0,1-1.34,5.62,9.781,9.781,0,0,1-3.761,3.859,11.5,11.5,0,0,1-11.18-.1,11.112,11.112,0,0,1-4.04-4.021,10.967,10.967,0,0,1-1.52-5.64,10.763,10.763,0,0,1,1.52-5.6,11.11,11.11,0,0,1,4.04-4.021,10.876,10.876,0,0,1,5.6-1.5A10.672,10.672,0,0,1,1041.87,499.539Zm13.2,3.44v3.16h3.2v3.2h-3.2v3.16h-3.2v-3.16h-3.16v-3.2h3.16v-3.16h3.2Z" fill="#fff"/>
  </g>
</svg>
