<svg xmlns="http://www.w3.org/2000/svg" xmlns:xlink="http://www.w3.org/1999/xlink" width="114" height="67.613" viewBox="0 0 114 67.613">
  <defs>
    <clipPath id="clip-path">
      <path id="mask" d="M1.186-31.794,16.827-51.57A2.685,2.685,0,0,1,20.63-52a2.722,2.722,0,0,1,.423.427L36.694-31.794a5.513,5.513,0,0,1,1.186,3.419v6.29a5.443,5.443,0,0,1-5.411,5.473H5.411A5.443,5.443,0,0,1,0-22.084v-6.29A5.513,5.513,0,0,1,1.186-31.794Z" transform="translate(0 52.597)" fill="#23206d" clip-rule="evenodd"/>
    </clipPath>
  </defs>
  <g id="Rounded" transform="translate(0.447)">
    <g id="position" transform="translate(0)">
      <ellipse id="Ellipse" cx="57" cy="32" rx="57" ry="32" transform="translate(-0.447 3.613)" fill="#3497fd" opacity="0.168"/>
      <g id="triangle" transform="translate(38.235)">
        <path id="triangle-2" data-name="triangle" d="M1.186-31.794,16.827-51.57A2.685,2.685,0,0,1,20.63-52a2.722,2.722,0,0,1,.423.427L36.694-31.794a5.513,5.513,0,0,1,1.186,3.419v6.29a5.443,5.443,0,0,1-5.411,5.473H5.411A5.443,5.443,0,0,1,0-22.084v-6.29A5.513,5.513,0,0,1,1.186-31.794Z" transform="translate(0 52.597)" fill="#3acce1" fill-rule="evenodd"/>
        <path id="triangle-3" data-name="triangle" d="M1.186-31.794,16.827-51.57A2.685,2.685,0,0,1,20.63-52a2.722,2.722,0,0,1,.423.427L36.694-31.794a5.513,5.513,0,0,1,1.186,3.419v6.29a5.443,5.443,0,0,1-5.411,5.473H5.411A5.443,5.443,0,0,1,0-22.084v-6.29A5.513,5.513,0,0,1,1.186-31.794Z" transform="translate(0 52.597)" fill="#028dc1" fill-rule="evenodd" opacity="0.236"/>
        <g id="Mask-2" data-name="Mask" clip-path="url(#clip-path)">
          <path id="triangle-4" data-name="triangle" d="M1.186-31.794,16.827-51.57A2.685,2.685,0,0,1,20.63-52a2.722,2.722,0,0,1,.423.427L36.694-31.794a5.513,5.513,0,0,1,1.186,3.419v6.29a5.443,5.443,0,0,1-5.411,5.473H5.411A5.443,5.443,0,0,1,0-22.084v-6.29A5.513,5.513,0,0,1,1.186-31.794Z" transform="translate(0 43.544)" fill="#34c7ff" fill-rule="evenodd"/>
        </g>
      </g>
    </g>
  </g>
</svg>
