<?xml version="1.0" encoding="utf-8"?>
<!-- Generator: Adobe Illustrator 22.0.0, SVG Export Plug-In . SVG Version: 6.00 Build 0)  -->
<svg version="1.1" id="Layer_1" xmlns="http://www.w3.org/2000/svg" xmlns:xlink="http://www.w3.org/1999/xlink" x="0px" y="0px"
	 viewBox="0 0 114 67.6" style="enable-background:new 0 0 114 67.6;" xml:space="preserve">
<style type="text/css">
	.st0{opacity:0.168;fill:#FDE234;enable-background:new    ;}
	.st1{fill:#FFFFFF;}
	.st2{fill:none;}
	.st3{fill:#FF9700;}
	.st4{opacity:5.000000e-02;enable-background:new    ;}
</style>
<g id="Rounded" transform="translate(0.447)">
	<g id="position" transform="translate(0)">
		<path id="Ellipse" class="st0" d="M56.6,3.6c31.5,0,57,14.3,57,32s-25.5,32-57,32s-57-14.3-57-32S25.1,3.6,56.6,3.6z"/>
	</g>
</g>
<ellipse class="st1" cx="56" cy="27" rx="20.5" ry="19.1"/>
<g>
	<path class="st2" d="M26.8,0h58.4v58.4H26.8V0z"/>
	<g>
		<path class="st3" d="M56,4.9c-12.1,0-21.9,9.8-21.9,21.9C34.1,37,41,45.5,50.4,48l5.6,5.6l5.6-5.6c9.4-2.5,16.3-11,16.3-21.2
			C77.9,14.7,68.1,4.9,56,4.9z M56,9.7c4,0,7.3,3.3,7.3,7.3S60,24.3,56,24.3S48.7,21,48.7,17S52,9.7,56,9.7z M56,44.6
			c-6.1,0-11.5-3.1-14.6-7.8c0.1-4.8,9.7-7.5,14.6-7.5c4.8,0,14.5,2.7,14.6,7.5C67.5,41.4,62.1,44.6,56,44.6z"/>
		<path class="st4" d="M56,4.4c-12.4,0-22.4,10-22.4,22.4c0,10.1,6.8,18.9,16.5,21.6l5.9,5.9l5.9-5.9c9.7-2.6,16.5-11.5,16.5-21.6
			C78.4,14.4,68.4,4.4,56,4.4z M61.3,47.5L61.3,47.5l-5.4,5.3l-5.3-5.3h-0.1c-9.4-2.5-15.9-11-15.9-20.7C34.6,15,44.2,5.4,56,5.4
			S77.4,15,77.2,26.8C77.2,36.5,70.7,45,61.3,47.5z"/>
	</g>
</g>
</svg>
