<?xml version="1.0" encoding="utf-8"?>
<!-- Generator: Adobe Illustrator 22.0.0, SVG Export Plug-In . SVG Version: 6.00 Build 0)  -->
<svg version="1.1" id="Layer_1" xmlns="http://www.w3.org/2000/svg" xmlns:xlink="http://www.w3.org/1999/xlink" x="0px" y="0px"
	 viewBox="0 0 114 67.6" style="enable-background:new 0 0 114 67.6;" xml:space="preserve">
<style type="text/css">
	.st0{fill:none;}
	.st1{fill:#FFFFFF;}
	.st2{fill:#00AEEF;}
	.st3{opacity:9.000000e-02;}
</style>
<g>
	<path class="st0" d="M23.2,0h67.5v67.5H23.2V0z"/>
	<g>
		<circle class="st1" cx="57.1" cy="25.4" r="8.2"/>
		<path class="st2" d="M57,5.7c-10.9,0-19.7,8.8-19.7,19.7C37.3,40.1,57,61.9,57,61.9s19.7-21.8,19.7-36.6
			C76.7,14.5,67.9,5.7,57,5.7z M57,32.4c-3.9,0-7-3.2-7-7s3.2-7,7-7s7,3.2,7,7S60.9,32.4,57,32.4z"/>
		<path class="st3" d="M57,62.7l-0.4-0.4c-0.8-0.9-19.8-22.1-19.8-36.9c0-11.1,9.1-20.2,20.2-20.2c11.1,0,20.2,9.1,20.2,20.2
			c0,14.8-19,36-19.8,36.9L57,62.7z M57,6.2c-10.6,0-19.2,8.6-19.2,19.2c0,13.3,16.5,32.7,19.2,35.8c2.7-3.1,19.2-22.5,19.2-35.8
			C76.2,14.8,67.6,6.2,57,6.2z M57,32.9c-4.2,0-7.5-3.4-7.5-7.5s3.4-7.5,7.5-7.5c4.2,0,7.5,3.4,7.5,7.5S61.2,32.9,57,32.9z M57,18.8
			c-3.6,0-6.5,2.9-6.5,6.5s2.9,6.5,6.5,6.5s6.5-2.9,6.5-6.5S60.6,18.8,57,18.8z"/>
	</g>
</g>
</svg>
