<svg xmlns="http://www.w3.org/2000/svg" xmlns:xlink="http://www.w3.org/1999/xlink" width="27.676" height="28.2" viewBox="0 0 27.676 28.2">
  <defs>
    <linearGradient id="linear-gradient" x1="0.5" x2="0.5" y2="1" gradientUnits="objectBoundingBox">
      <stop offset="0" stop-color="#00aeef"/>
      <stop offset="1" stop-color="#34c7ff"/>
    </linearGradient>
  </defs>
  <path id="Caminho_336" data-name="Caminho 336" d="M27.081,17.881A10.3,10.3,0,0,0,27.17,16.5a8.411,8.411,0,0,0-.1-1.381L30.074,12.8a.716.716,0,0,0,.178-.9L27.407,7.027a.727.727,0,0,0-.874-.323l-3.542,1.41a10.491,10.491,0,0,0-2.4-1.381L20.057,3a.715.715,0,0,0-.711-.6H13.655a.7.7,0,0,0-.7.6l-.533,3.731a10.723,10.723,0,0,0-2.4,1.381L6.482,6.7a.71.71,0,0,0-.874.323L2.778,11.9a.664.664,0,0,0,.178.9l3.008,2.321a8.1,8.1,0,0,0-.03,2.761L2.926,20.2a.716.716,0,0,0-.178.9l2.845,4.876a.727.727,0,0,0,.874.323l3.542-1.41a10.491,10.491,0,0,0,2.4,1.381L12.943,30a.727.727,0,0,0,.711.6h5.691a.689.689,0,0,0,.7-.6l.533-3.731a10.187,10.187,0,0,0,2.4-1.381l3.542,1.41a.71.71,0,0,0,.874-.323L30.237,21.1a.676.676,0,0,0-.178-.9ZM16.5,21.788A5.288,5.288,0,1,1,21.835,16.5,5.327,5.327,0,0,1,16.5,21.788Z" transform="translate(-2.662 -2.4)" fill="url(#linear-gradient)"/>
</svg>
