<svg id="share_black_24dp" xmlns="http://www.w3.org/2000/svg" width="26" height="26" viewBox="0 0 26 26">
  <path id="Caminho_25" data-name="Caminho 25" d="M0,0H26V26H0Z" fill="none"/>
  <path id="Caminho_26" data-name="Caminho 26" d="M19.667,17.494a3.253,3.253,0,0,0-2.178.847L9.567,13.774a3.569,3.569,0,0,0,.1-.77,3.569,3.569,0,0,0-.1-.77L17.4,7.711A3.287,3.287,0,1,0,16.333,5.3a3.569,3.569,0,0,0,.1.77L8.6,10.594a3.3,3.3,0,1,0,0,4.82l7.911,4.578a3.076,3.076,0,0,0-.089.715,3.245,3.245,0,1,0,3.244-3.213Z" transform="translate(0)" fill="#07a4de"/>
</svg>
