<svg xmlns="http://www.w3.org/2000/svg" viewBox="0 0 343.31 65.62"><defs><style>.cls-1{fill:#231f20;}.cls-2{fill:#00aeef;}.cls-3{opacity:0.05;}</style></defs><title>NarratIve</title><g id="Layer_2" data-name="Layer 2"><g id="Rounded"><path class="cls-1" d="M6.41,26.84v4.88c2.4-4,7.42-6,11.5-6,9.1,0,15.15,5.25,15.15,14.64V64.12H26.65V42.06c0-6.77-3.28-11.29-10-11.29-6.11,0-10.26,4.88-10.26,9.54V64.12H0V26.84Z"/><path class="cls-1" d="M61.6,25.67A16.88,16.88,0,0,1,76.53,34V26.84h6.4V64.12h-6.4V56.77A16.91,16.91,0,0,1,61.6,65.29C50.9,65.29,43,56.84,43,45.48S50.9,25.67,61.6,25.67Zm1.6,34.08c7.87,0,13.55-6,13.55-14.27S71,31.21,63.2,31.21s-13.54,5.9-13.54,14.27S55.34,59.75,63.2,59.75Z"/><path class="cls-1" d="M102.45,26.84V32.3a12.62,12.62,0,0,1,11-6.63,18.44,18.44,0,0,1,6.77,1.46l-2.69,5.39a14.5,14.5,0,0,0-5.68-1.24c-6.84,0-9.39,6.48-9.39,9V64.12H96V26.84Z"/><path class="cls-1" d="M132.88,26.84V32.3a12.65,12.65,0,0,1,11-6.63,18.5,18.5,0,0,1,6.77,1.46L148,32.52a14.55,14.55,0,0,0-5.68-1.24c-6.85,0-9.4,6.48-9.4,9V64.12h-6.4V26.84Z"/><path class="cls-1" d="M172.35,25.67A16.88,16.88,0,0,1,187.28,34V26.84h6.4V64.12h-6.4V56.77a16.91,16.91,0,0,1-14.93,8.52c-10.71,0-18.64-8.45-18.64-19.81S161.64,25.67,172.35,25.67ZM174,59.75c7.86,0,13.54-6,13.54-14.27S181.74,31.21,174,31.21s-13.54,5.9-13.54,14.27S166.09,59.75,174,59.75Z"/><path class="cls-1" d="M207.23,26.84V12.93h6.4V26.84h9.11v4.88h-9.11V53.05c0,4.3,1.17,6.56,4.37,6.56a6.41,6.41,0,0,0,3.72-1.24l1.6,5.17a13.06,13.06,0,0,1-6.77,1.75c-7.79,0-9.32-5.83-9.32-11.29V31.72h-4V26.84Z"/><polygon class="cls-2" points="231.03 0 222.39 0 253.83 65.62 262.47 65.62 231.03 0"/><path class="cls-2" d="M267.51,26.84l13,28.33,13-28.33h7.5L282.73,64.12h-4.37L260,26.84Z"/><path class="cls-2" d="M323.8,25.67c10.92,0,19.51,8,19.51,19.81v.73H310.62c0,8.52,6.48,13.83,14,13.83a14.64,14.64,0,0,0,12.82-6.48L342.15,56c-3.79,6.19-10.19,9.25-17.91,9.25-11.22,0-20.1-8.52-20.1-19.81A19.71,19.71,0,0,1,323.8,25.67ZM337.05,42.2c-.73-7-6.26-11.28-13.1-11.28-7.14,0-12.53,4.51-13.18,11.28Z"/><polygon class="cls-3" points="222.39 0 253.83 65.62 257.83 65.62 226.39 0 222.39 0"/></g></g></svg>